<svg width="200" height="54" viewBox="0 0 200 54" fill="none" xmlns="http://www.w3.org/2000/svg">
<g clip-path="url(#clip0_4_143)">
<path d="M27.6635 25.8343C27.6635 30.3121 25.9703 33.2414 22.7403 34.635L27.3899 52.1074C27.5853 52.9075 27.1816 53.3075 26.4522 53.3075H19.4452C19.17 53.3295 18.8969 53.245 18.6832 53.0717C18.4695 52.8985 18.3318 52.65 18.299 52.3784L13.7927 35.4609H9.15603V52.2365C9.17018 52.3806 9.15194 52.526 9.10261 52.6623C9.05329 52.7987 8.97412 52.9225 8.87077 53.0249C8.76742 53.1273 8.64246 53.2057 8.50488 53.2546C8.36729 53.3035 8.22049 53.3215 8.07502 53.3075H1.08101C0.935542 53.3215 0.788743 53.3035 0.651159 53.2546C0.513575 53.2057 0.388622 53.1273 0.285273 53.0249C0.181923 52.9225 0.102743 52.7987 0.0534196 52.6623C0.00409653 52.526 -0.0141459 52.3806 2.43587e-06 52.2365V1.07105C-0.0141459 0.926922 0.00409653 0.781473 0.0534196 0.645156C0.102743 0.50884 0.181923 0.385035 0.285273 0.282638C0.388622 0.18024 0.513575 0.101794 0.651159 0.0529251C0.788743 0.0040563 0.935542 -0.0140205 1.08101 -2.53879e-06H18.0125C24.3293 -2.53879e-06 27.7025 3.3293 27.7025 9.60077L27.6635 25.8343ZM15.8114 26.6344C16.1754 26.6803 16.5451 26.6433 16.8924 26.5261C17.2397 26.409 17.5554 26.2148 17.8154 25.9584C18.0755 25.702 18.273 25.3901 18.3929 25.0466C18.5129 24.703 18.552 24.3369 18.5074 23.9761V11.4719C18.5542 11.1101 18.5166 10.7425 18.3977 10.3973C18.2787 10.0521 18.0815 9.73851 17.8212 9.48059C17.5609 9.22267 17.2444 9.02728 16.896 8.90942C16.5476 8.79156 16.1766 8.75438 15.8114 8.80071H9.15603V26.6602L15.8114 26.6344Z" fill="#4CDAED"/>
<path d="M65.2644 7.76836C65.2644 8.43938 64.9909 8.90393 64.1834 8.90393H47.3691V22.1953H60.211C60.3615 22.1845 60.5125 22.2069 60.6531 22.2611C60.7937 22.3153 60.9204 22.3998 61.0239 22.5086C61.1274 22.6173 61.2052 22.7475 61.2516 22.8898C61.2979 23.032 61.3117 23.1827 61.292 23.3309V29.9379C61.3121 30.0855 61.2984 30.2358 61.252 30.3775C61.2056 30.5192 61.1276 30.6488 61.0238 30.7566C60.92 30.8644 60.793 30.9477 60.6523 31.0003C60.5116 31.0529 60.3608 31.0735 60.211 31.0606H47.3691V44.5326H64.1834C64.9909 44.5326 65.2644 44.8681 65.2644 45.6037V52.2623C65.2644 52.9333 64.9909 53.3333 64.1834 53.3333H39.4374C39.2977 53.3378 39.1586 53.3125 39.0296 53.2592C38.9006 53.2059 38.7846 53.1258 38.6896 53.0242C38.5945 52.9227 38.5225 52.8021 38.4785 52.6707C38.4345 52.5392 38.4195 52.4 38.4345 52.2623V1.07105C38.4236 0.936498 38.4412 0.801176 38.4862 0.673773C38.5312 0.546369 38.6026 0.4297 38.6958 0.331264C38.789 0.232828 38.902 0.154798 39.0275 0.102191C39.1529 0.0495847 39.2881 0.023564 39.4243 0.0257978H64.1704C64.9779 0.0257978 65.2514 0.425832 65.2514 1.09685L65.2644 7.76836Z" fill="#4CDAED"/>
<path d="M76.0224 1.07107C76.0085 0.928114 76.0265 0.783891 76.0751 0.648589C76.1237 0.513287 76.2017 0.390205 76.3036 0.288044C76.4054 0.185884 76.5287 0.107138 76.6647 0.0573671C76.8006 0.0075958 76.946 -0.0119862 77.0904 9.10996e-06H93.2404C99.5702 9.10996e-06 102.93 3.32931 102.93 9.60078V25.8344C102.93 32.0413 99.5702 35.4351 93.2404 35.4351H85.1654V52.2107C85.1869 52.3551 85.1743 52.5026 85.1284 52.6413C85.0826 52.7801 85.0048 52.9064 84.9012 53.0103C84.7976 53.1141 84.6711 53.1927 84.5316 53.2398C84.3921 53.287 84.2435 53.3013 84.0974 53.2817H77.0904C76.946 53.2937 76.8006 53.2741 76.6647 53.2244C76.5287 53.1746 76.4054 53.0959 76.3036 52.9937C76.2017 52.8915 76.1237 52.7685 76.0751 52.6332C76.0265 52.4979 76.0085 52.3536 76.0224 52.2107V1.07107ZM91.0914 26.6602C91.4554 26.7061 91.8251 26.6691 92.1724 26.552C92.5197 26.4348 92.8354 26.2406 93.0954 25.9842C93.3555 25.7278 93.553 25.4159 93.6729 25.0724C93.7929 24.7289 93.832 24.3628 93.7874 24.0019V11.4719C93.8397 11.1091 93.8059 10.7392 93.6889 10.3915C93.5719 10.0438 93.3748 9.7279 93.1132 9.46874C92.8517 9.20958 92.5328 9.0143 92.1819 8.89836C91.831 8.78241 91.4576 8.74899 91.0914 8.80072H85.1654V26.6602H91.0914Z" fill="#4CDAED"/>
<path d="M113.688 1.07105C113.674 0.926922 113.693 0.781473 113.742 0.645157C113.791 0.50884 113.87 0.385035 113.974 0.282638C114.077 0.18024 114.202 0.101794 114.34 0.0529251C114.477 0.0040563 114.624 -0.0140205 114.769 -2.53832e-06H130.92C137.249 -2.53832e-06 140.61 3.3293 140.61 9.60077V25.8343C140.61 32.0413 137.249 35.4351 130.92 35.4351H122.844V52.2107C122.864 52.3558 122.849 52.5034 122.801 52.642C122.754 52.7807 122.675 52.9066 122.57 53.0101C122.466 53.1137 122.339 53.192 122.199 53.2391C122.059 53.2862 121.91 53.3008 121.763 53.2817H114.769C114.624 53.2957 114.477 53.2777 114.34 53.2288C114.202 53.1799 114.077 53.1015 113.974 52.9991C113.87 52.8967 113.791 52.7729 113.742 52.6366C113.693 52.5002 113.674 52.3548 113.688 52.2107V1.07105ZM128.771 26.6602C129.133 26.704 129.502 26.6653 129.847 26.5472C130.193 26.4291 130.507 26.2346 130.765 25.9785C131.024 25.7223 131.22 25.4113 131.339 25.0688C131.459 24.7264 131.498 24.3615 131.453 24.0019V11.4719C131.505 11.1103 131.472 10.7417 131.355 10.3951C131.239 10.0486 131.043 9.73349 130.783 9.47461C130.523 9.21574 130.206 9.02014 129.857 8.90321C129.508 8.78628 129.136 8.75119 128.771 8.80071H122.844V26.6602H128.771Z" fill="#4CDAED"/>
<path d="M159.443 0.0257989C159.587 0.0138035 159.732 0.0333855 159.868 0.0831568C160.004 0.132928 160.128 0.211674 160.229 0.313834C160.331 0.415995 160.409 0.539077 160.458 0.674379C160.506 0.809681 160.524 0.953904 160.511 1.09686V52.2881C160.524 52.431 160.506 52.5752 160.458 52.7106C160.409 52.8459 160.331 52.9689 160.229 53.0711C160.128 53.1733 160.004 53.252 159.868 53.3018C159.732 53.3515 159.587 53.3711 159.443 53.3591H152.436C152.29 53.376 152.143 53.3598 152.004 53.3118C151.866 53.2637 151.741 53.1851 151.638 53.0818C151.535 52.9786 151.457 52.8534 151.41 52.7159C151.363 52.5783 151.349 52.432 151.368 52.2881V1.07105C151.349 0.927096 151.363 0.780789 151.41 0.643249C151.457 0.505708 151.535 0.380552 151.638 0.277294C151.741 0.174036 151.866 0.095391 152.004 0.0473401C152.143 -0.000710777 152.29 -0.0169042 152.436 -1.0266e-05L159.443 0.0257989Z" fill="#4CDAED"/>
<path d="M198.932 0.0258107C199.077 0.0117927 199.224 0.0298695 199.362 0.0787383C199.499 0.127607 199.624 0.206054 199.728 0.308451C199.831 0.410848 199.91 0.534653 199.96 0.67097C200.009 0.807287 200.027 0.952736 200.013 1.09687V52.2881C200.027 52.4322 200.009 52.5777 199.96 52.714C199.91 52.8503 199.831 52.9741 199.728 53.0765C199.624 53.1789 199.499 53.2573 199.362 53.3062C199.224 53.3551 199.077 53.3732 198.932 53.3591H192.329C192.057 53.3769 191.787 53.3004 191.566 53.1426C191.345 52.9848 191.187 52.7557 191.117 52.4946L180.828 24.0277H180.49V52.2881C180.509 52.4332 180.494 52.5808 180.447 52.7195C180.399 52.8581 180.32 52.984 180.216 53.0876C180.111 53.1911 179.984 53.2694 179.844 53.3165C179.704 53.3636 179.555 53.3782 179.409 53.3591H172.415C172.27 53.3711 172.125 53.3516 171.989 53.3018C171.853 53.252 171.73 53.1733 171.628 53.0711C171.526 52.9689 171.448 52.8459 171.399 52.7106C171.351 52.5753 171.333 52.431 171.347 52.2881V1.07106C171.333 0.928107 171.351 0.783884 171.399 0.648582C171.448 0.51328 171.526 0.390197 171.628 0.288037C171.73 0.185876 171.853 0.107131 171.989 0.0573595C172.125 0.00758825 172.27 -0.0119938 172.415 1.5609e-06H179.083C179.355 -0.0178044 179.625 0.0587643 179.846 0.216546C180.067 0.374328 180.225 0.603471 180.294 0.86459L190.518 29.254H190.922V1.07106C190.903 0.925896 190.918 0.778295 190.965 0.639667C191.013 0.50104 191.092 0.375096 191.196 0.271571C191.301 0.168046 191.428 0.0897104 191.568 0.0426213C191.708 -0.00446774 191.857 -0.0190495 192.003 1.5609e-06L198.932 0.0258107Z" fill="#4CDAED"/>
</g>
<defs>
<clipPath id="clip0_4_143">
<rect width="200" height="53.3333" fill="white"/>
</clipPath>
</defs>
</svg>
