<?xml version="1.0" encoding="utf-8"?>
<!-- Generator: Adobe Illustrator 26.1.0, SVG Export Plug-In . SVG Version: 6.00 Build 0)  -->
<svg version="1.1" id="Layer_1" xmlns="http://www.w3.org/2000/svg" xmlns:xlink="http://www.w3.org/1999/xlink" x="0px" y="0px"
	 viewBox="0 0 40 40" style="enable-background:new 0 0 40 40;" xml:space="preserve">
<style type="text/css">
	.st0{fill:#FFFFFF;}
</style>
<path class="st0" d="M35.2,0H4.8C3.5,0,2.3,0.5,1.4,1.4C0.5,2.3,0,3.5,0,4.7v30.5c0,1.3,0.5,2.5,1.4,3.4C2.3,39.5,3.5,40,4.8,40
	h30.5c1.3,0,2.5-0.5,3.4-1.4c0.9-0.9,1.4-2.1,1.4-3.4V4.7c0-1.3-0.5-2.5-1.4-3.4C37.7,0.5,36.5,0,35.2,0z M28.7,6.2
	c0-0.3,0.1-0.6,0.4-0.9C29.3,5.1,29.7,5,30,5h3.7c0.3,0,0.6,0.1,0.9,0.4C34.9,5.6,35,5.9,35,6.2V10c0,0.3-0.1,0.6-0.4,0.9
	c-0.2,0.2-0.6,0.4-0.9,0.4H30c-0.3,0-0.6-0.1-0.9-0.4c-0.2-0.2-0.4-0.6-0.4-0.9V6.2z M20,12.4c1.5,0,3,0.4,4.2,1.3
	c1.3,0.8,2.2,2,2.8,3.4c0.6,1.4,0.7,2.9,0.4,4.4c-0.3,1.5-1,2.8-2.1,3.9s-2.4,1.8-3.9,2.1c-1.5,0.3-3,0.1-4.4-0.4
	c-1.4-0.6-2.6-1.6-3.4-2.8c-0.8-1.3-1.3-2.7-1.3-4.2c0-1,0.2-2,0.6-2.9c0.4-0.9,0.9-1.8,1.7-2.5c0.7-0.7,1.6-1.3,2.5-1.7
	C18,12.6,19,12.4,20,12.4L20,12.4z M36.3,35c0,0.2,0,0.3-0.1,0.5c-0.1,0.2-0.2,0.3-0.3,0.4c-0.1,0.1-0.3,0.2-0.4,0.3
	c-0.2,0.1-0.3,0.1-0.5,0.1H5c-0.3,0-0.7-0.1-0.9-0.4S3.8,35.3,3.8,35V16.2h5c-0.6,1.2-0.9,2.5-0.9,3.8c0,3.2,1.3,6.3,3.6,8.6
	c2.3,2.3,5.4,3.6,8.6,3.6c3.2,0,6.3-1.3,8.6-3.6c2.3-2.3,3.6-5.4,3.6-8.6c0.1-1.3-0.2-2.7-1-3.8h5V35z"/>
</svg>
