<?xml version="1.0" encoding="utf-8"?>
<!-- Generator: Adobe Illustrator 26.1.0, SVG Export Plug-In . SVG Version: 6.00 Build 0)  -->
<svg version="1.1" id="Layer_1" xmlns="http://www.w3.org/2000/svg" xmlns:xlink="http://www.w3.org/1999/xlink" x="0px" y="0px"
	 viewBox="0 0 40 40" style="enable-background:new 0 0 40 40;" xml:space="preserve">
<style type="text/css">
	.st0{fill:#FFFFFF;}
</style>
<path class="st0" d="M38.9,3.7c-1.6,1-3.4,1.7-5.2,2.1c-0.8-0.8-1.7-1.5-2.7-2c-1-0.5-2.1-0.7-3.3-0.7c-2.2,0-4.3,0.9-5.9,2.5
	s-2.4,3.7-2.4,6c0,0.7,0.1,1.3,0.2,1.9c-3.3-0.2-6.5-1.1-9.4-2.6C7.3,9.4,4.8,7.3,2.7,4.7c-1.1,1.9-1.4,4.1-0.9,6.2
	c0.5,2.1,1.7,4,3.5,5.2C4,16,2.7,15.6,1.6,15V15c0,1.9,0.6,3.8,1.8,5.4c1.2,1.5,2.9,2.6,4.8,3c-0.7,0.2-1.4,0.3-2.1,0.3
	c-0.5,0-1-0.1-1.5-0.2C5,25.2,6,26.7,7.4,27.8c1.4,1.1,3,1.7,4.8,1.7C9.3,31.8,5.7,33.1,2,33.1c-0.7,0-1.3,0-2-0.1
	c3.7,2.5,8.1,3.9,12.5,3.9c15.1,0,23.4-13,23.4-24.2c0-0.4,0-0.7,0-1.1c1.6-1.2,3-2.7,4.1-4.4c-1.5,0.7-3.1,1.1-4.7,1.3
	C37,7.4,38.3,5.7,38.9,3.7z"/>
</svg>
